<mxfile host="Electron" modified="2023-05-01T22:59:21.881Z" agent="Mozilla/5.0 (X11; Linux x86_64) AppleWebKit/537.36 (KHTML, like Gecko) draw.io/21.2.1 Chrome/112.0.5615.87 Electron/24.1.2 Safari/537.36" etag="W2ozI73jZvbq92Ml4PVV" version="21.2.1" type="device">
  <diagram name="Page-1" id="Y4n5Yxikip4xXDvf3h0p">
    <mxGraphModel dx="2284" dy="1949" grid="1" gridSize="10" guides="1" tooltips="1" connect="1" arrows="1" fold="1" page="1" pageScale="1" pageWidth="850" pageHeight="1100" math="0" shadow="0">
      <root>
        <mxCell id="0" />
        <mxCell id="1" parent="0" />
        <mxCell id="Iz0A_yomUNvifDAudpDW-1" value="" style="rounded=0;whiteSpace=wrap;html=1;container=1;fontFamily=Computer Modern;flipH=1;" parent="1" vertex="1">
          <mxGeometry x="-630" y="180" width="594.24" height="360" as="geometry" />
        </mxCell>
        <mxCell id="Iz0A_yomUNvifDAudpDW-2" value="LspServer" style="rounded=0;whiteSpace=wrap;html=1;fontSize=16;fontFamily=Computer Modern;" parent="Iz0A_yomUNvifDAudpDW-1" vertex="1">
          <mxGeometry x="228.5538461538462" y="69.99823529411763" width="137.13230769230768" height="59.99999999999999" as="geometry" />
        </mxCell>
        <mxCell id="Iz0A_yomUNvifDAudpDW-3" value="&lt;font style=&quot;font-size: 24px;&quot;&gt;LSP&lt;/font&gt;" style="text;html=1;strokeColor=none;fillColor=none;align=center;verticalAlign=middle;whiteSpace=wrap;rounded=0;fontFamily=Computer Modern;fontSize=24;" parent="Iz0A_yomUNvifDAudpDW-1" vertex="1">
          <mxGeometry x="262.8369230769231" y="20" width="68.56615384615384" height="20" as="geometry" />
        </mxCell>
        <mxCell id="Iz0A_yomUNvifDAudpDW-4" value="TextDocumentService" style="rounded=0;whiteSpace=wrap;html=1;fontSize=16;fontFamily=Computer Modern;" parent="Iz0A_yomUNvifDAudpDW-1" vertex="1">
          <mxGeometry x="354.24" y="180.91" width="182.86" height="60" as="geometry" />
        </mxCell>
        <mxCell id="Iz0A_yomUNvifDAudpDW-5" value="WorkspaceService" style="rounded=0;whiteSpace=wrap;html=1;fontSize=16;fontFamily=Computer Modern;" parent="Iz0A_yomUNvifDAudpDW-1" vertex="1">
          <mxGeometry x="71.30879999999999" y="180.90545454545457" width="157.2477888" height="59.99999999999999" as="geometry" />
        </mxCell>
        <mxCell id="Iz0A_yomUNvifDAudpDW-7" value="" style="endArrow=classic;html=1;rounded=0;fontSize=14;fontFamily=Computer Modern;" parent="Iz0A_yomUNvifDAudpDW-1" source="Iz0A_yomUNvifDAudpDW-2" target="Iz0A_yomUNvifDAudpDW-4" edge="1">
          <mxGeometry width="50" height="50" relative="1" as="geometry">
            <mxPoint x="365.68615384615384" y="310.9082352941177" as="sourcePoint" />
            <mxPoint x="308.54769230769233" y="260.9082352941176" as="targetPoint" />
          </mxGeometry>
        </mxCell>
        <mxCell id="Iz0A_yomUNvifDAudpDW-8" value="" style="endArrow=classic;html=1;rounded=0;fontSize=14;fontFamily=Computer Modern;" parent="Iz0A_yomUNvifDAudpDW-1" source="Iz0A_yomUNvifDAudpDW-2" target="Iz0A_yomUNvifDAudpDW-5" edge="1">
          <mxGeometry width="50" height="50" relative="1" as="geometry">
            <mxPoint x="274.26461538461535" y="290.9082352941177" as="sourcePoint" />
            <mxPoint x="217.12615384615384" y="240.9082352941176" as="targetPoint" />
          </mxGeometry>
        </mxCell>
        <mxCell id="Iz0A_yomUNvifDAudpDW-9" value="Receives document changes, converts clones to diagnostics and code-actions" style="text;html=1;strokeColor=none;fillColor=none;align=left;verticalAlign=middle;whiteSpace=wrap;rounded=0;fontSize=16;fontFamily=Computer Modern;" parent="Iz0A_yomUNvifDAudpDW-1" vertex="1">
          <mxGeometry x="344.24" y="251.82" width="192.86" height="32.73" as="geometry" />
        </mxCell>
        <mxCell id="Iz0A_yomUNvifDAudpDW-11" value="Adding and deletion of files" style="text;html=1;strokeColor=none;fillColor=none;align=left;verticalAlign=middle;whiteSpace=wrap;rounded=0;fontSize=16;fontFamily=Computer Modern;" parent="Iz0A_yomUNvifDAudpDW-1" vertex="1">
          <mxGeometry x="79.99384615384616" y="240.91187165775398" width="148.56" height="43.63636363636363" as="geometry" />
        </mxCell>
        <mxCell id="Iz0A_yomUNvifDAudpDW-13" value="" style="rounded=0;whiteSpace=wrap;html=1;fontSize=14;container=1;fontFamily=Computer Modern;" parent="1" vertex="1">
          <mxGeometry x="160" y="180" width="570" height="360" as="geometry">
            <mxRectangle x="-430" y="200" width="50" height="40" as="alternateBounds" />
          </mxGeometry>
        </mxCell>
        <mxCell id="Iz0A_yomUNvifDAudpDW-14" value="Document Index" style="text;html=1;strokeColor=none;fillColor=none;align=center;verticalAlign=middle;whiteSpace=wrap;rounded=0;fontSize=24;fontFamily=Computer Modern;" parent="Iz0A_yomUNvifDAudpDW-13" vertex="1">
          <mxGeometry x="185.68181818181816" y="13.636363636363633" width="198.63636363636363" height="32.72727272727273" as="geometry" />
        </mxCell>
        <mxCell id="Iz0A_yomUNvifDAudpDW-15" value="Document map with fingerprints" style="rounded=0;whiteSpace=wrap;html=1;fontSize=16;fontFamily=Computer Modern;" parent="Iz0A_yomUNvifDAudpDW-13" vertex="1">
          <mxGeometry x="190.00163265306117" y="147.28181818181815" width="161.37979591836734" height="65.45454545454545" as="geometry" />
        </mxCell>
        <mxCell id="Iz0A_yomUNvifDAudpDW-17" value="Incremental parser" style="rounded=0;whiteSpace=wrap;html=1;fontSize=16;fontFamily=Computer Modern;" parent="Iz0A_yomUNvifDAudpDW-13" vertex="1">
          <mxGeometry x="10.001632653061176" y="147.27545454545455" width="161.37979591836734" height="65.45454545454545" as="geometry" />
        </mxCell>
        <mxCell id="Iz0A_yomUNvifDAudpDW-18" value="" style="endArrow=classic;startArrow=none;html=1;rounded=0;fontSize=14;fontFamily=Computer Modern;startFill=0;" parent="Iz0A_yomUNvifDAudpDW-13" source="Iz0A_yomUNvifDAudpDW-17" target="Iz0A_yomUNvifDAudpDW-15" edge="1">
          <mxGeometry width="50" height="50" relative="1" as="geometry">
            <mxPoint x="29.71953266810408" y="229.0909090909091" as="sourcePoint" />
            <mxPoint x="116.08316903174045" y="174.54545454545453" as="targetPoint" />
          </mxGeometry>
        </mxCell>
        <mxCell id="Iz0A_yomUNvifDAudpDW-19" value="Incremental reparse of document changes" style="text;html=1;strokeColor=none;fillColor=none;align=left;verticalAlign=middle;whiteSpace=wrap;rounded=0;fontSize=16;fontFamily=Computer Modern;" parent="Iz0A_yomUNvifDAudpDW-13" vertex="1">
          <mxGeometry x="24.302857142857125" y="229.99727272727273" width="162.8571428571429" height="32.72727272727273" as="geometry" />
        </mxCell>
        <mxCell id="Iz0A_yomUNvifDAudpDW-20" value="Edit operation calculator" style="rounded=0;whiteSpace=wrap;html=1;fontSize=16;fontFamily=Computer Modern;" parent="Iz0A_yomUNvifDAudpDW-13" vertex="1">
          <mxGeometry x="370" y="147.28" width="182.65" height="65.45" as="geometry" />
        </mxCell>
        <mxCell id="Iz0A_yomUNvifDAudpDW-21" value="" style="endArrow=classic;html=1;rounded=0;fontSize=14;fontFamily=Computer Modern;" parent="Iz0A_yomUNvifDAudpDW-13" source="Iz0A_yomUNvifDAudpDW-15" target="Iz0A_yomUNvifDAudpDW-20" edge="1">
          <mxGeometry width="50" height="50" relative="1" as="geometry">
            <mxPoint x="312.13897959183674" y="250.90909090909088" as="sourcePoint" />
            <mxPoint x="370.3022448979592" y="196.36363636363637" as="targetPoint" />
          </mxGeometry>
        </mxCell>
        <mxCell id="Iz0A_yomUNvifDAudpDW-22" value="Determine what has changed in the fingerprint" style="text;html=1;strokeColor=none;fillColor=none;align=left;verticalAlign=middle;whiteSpace=wrap;rounded=0;fontSize=16;fontFamily=Computer Modern;" parent="Iz0A_yomUNvifDAudpDW-13" vertex="1">
          <mxGeometry x="372.65" y="224.54000000000002" width="180" height="43.64" as="geometry" />
        </mxCell>
        <mxCell id="H_5x75wkn-lfsVb7Z4_q-1" style="edgeStyle=orthogonalEdgeStyle;rounded=0;orthogonalLoop=1;jettySize=auto;html=1;exitX=0.5;exitY=1;exitDx=0;exitDy=0;" parent="Iz0A_yomUNvifDAudpDW-13" source="Iz0A_yomUNvifDAudpDW-22" target="Iz0A_yomUNvifDAudpDW-22" edge="1">
          <mxGeometry relative="1" as="geometry" />
        </mxCell>
        <mxCell id="H_5x75wkn-lfsVb7Z4_q-2" value="Compute and set fingerprints for changed documents" style="text;html=1;strokeColor=none;fillColor=none;align=left;verticalAlign=middle;whiteSpace=wrap;rounded=0;fontSize=16;fontFamily=Computer Modern;" parent="Iz0A_yomUNvifDAudpDW-13" vertex="1">
          <mxGeometry x="191.97" y="229.99" width="159.41" height="32.73" as="geometry" />
        </mxCell>
        <mxCell id="Iz0A_yomUNvifDAudpDW-23" value="" style="rounded=0;whiteSpace=wrap;html=1;fontSize=14;container=1;flipV=0;flipH=1;" parent="1" vertex="1">
          <mxGeometry x="-215" y="-370" width="560" height="422.86" as="geometry" />
        </mxCell>
        <mxCell id="Iz0A_yomUNvifDAudpDW-27" value="Detection" style="text;html=1;strokeColor=none;fillColor=none;align=center;verticalAlign=middle;whiteSpace=wrap;rounded=0;fontSize=24;fontFamily=Computer Modern;" parent="Iz0A_yomUNvifDAudpDW-23" vertex="1">
          <mxGeometry x="152.65185185185183" y="11.434362972972963" width="267.14074074074074" height="39.643125000000005" as="geometry" />
        </mxCell>
        <mxCell id="Iz0A_yomUNvifDAudpDW-28" value="Dynamic suffix array" style="rounded=0;whiteSpace=wrap;html=1;fontFamily=Computer Modern;fontSize=16;" parent="Iz0A_yomUNvifDAudpDW-23" vertex="1">
          <mxGeometry x="348.44444444444446" y="274.2875675675676" width="174.2222222222222" height="68.5718918918919" as="geometry" />
        </mxCell>
        <mxCell id="Iz0A_yomUNvifDAudpDW-29" value="Clone index extractor" style="rounded=0;whiteSpace=wrap;html=1;fontFamily=Computer Modern;fontSize=16;" parent="Iz0A_yomUNvifDAudpDW-23" vertex="1">
          <mxGeometry x="348.44444444444446" y="125.71513513513513" width="174.2222222222222" height="68.5718918918919" as="geometry" />
        </mxCell>
        <mxCell id="Iz0A_yomUNvifDAudpDW-30" value="" style="endArrow=classic;html=1;rounded=0;fontFamily=Computer Modern;fontSize=14;" parent="Iz0A_yomUNvifDAudpDW-23" source="Iz0A_yomUNvifDAudpDW-28" target="Iz0A_yomUNvifDAudpDW-29" edge="1">
          <mxGeometry width="50" height="50" relative="1" as="geometry">
            <mxPoint x="385.7777777777778" y="548.5751351351352" as="sourcePoint" />
            <mxPoint x="323.55555555555554" y="491.43189189189195" as="targetPoint" />
          </mxGeometry>
        </mxCell>
        <mxCell id="Iz0A_yomUNvifDAudpDW-31" value="extended SA" style="text;html=1;strokeColor=none;fillColor=none;align=center;verticalAlign=middle;whiteSpace=wrap;rounded=0;fontSize=16;fontFamily=Computer Modern;" parent="Iz0A_yomUNvifDAudpDW-23" vertex="1">
          <mxGeometry x="336" y="217.14432432432434" width="99.55555555555556" height="34.28594594594595" as="geometry" />
        </mxCell>
        <mxCell id="Iz0A_yomUNvifDAudpDW-32" value="Source-map" style="rounded=0;whiteSpace=wrap;html=1;fontFamily=Computer Modern;fontSize=16;" parent="Iz0A_yomUNvifDAudpDW-23" vertex="1">
          <mxGeometry x="49.77777777777783" y="125.71513513513513" width="149.33333333333331" height="68.5718918918919" as="geometry" />
        </mxCell>
        <mxCell id="Iz0A_yomUNvifDAudpDW-33" value="Clone builder" style="rounded=0;whiteSpace=wrap;html=1;fontFamily=Computer Modern;fontSize=16;" parent="Iz0A_yomUNvifDAudpDW-23" vertex="1">
          <mxGeometry x="49.77777777777783" y="274.2875675675676" width="149.33333333333331" height="68.5718918918919" as="geometry" />
        </mxCell>
        <mxCell id="Iz0A_yomUNvifDAudpDW-34" value="" style="endArrow=classic;html=1;rounded=0;fontFamily=Computer Modern;fontSize=14;" parent="Iz0A_yomUNvifDAudpDW-23" source="Iz0A_yomUNvifDAudpDW-29" target="Iz0A_yomUNvifDAudpDW-32" edge="1">
          <mxGeometry width="50" height="50" relative="1" as="geometry">
            <mxPoint x="385.7777777777778" y="514.2891891891892" as="sourcePoint" />
            <mxPoint x="323.55555555555554" y="457.145945945946" as="targetPoint" />
          </mxGeometry>
        </mxCell>
        <mxCell id="Iz0A_yomUNvifDAudpDW-35" value="" style="endArrow=classic;html=1;rounded=0;fontFamily=Computer Modern;fontSize=14;" parent="Iz0A_yomUNvifDAudpDW-23" source="Iz0A_yomUNvifDAudpDW-32" target="Iz0A_yomUNvifDAudpDW-33" edge="1">
          <mxGeometry width="50" height="50" relative="1" as="geometry">
            <mxPoint x="348.44444444444446" y="514.2891891891892" as="sourcePoint" />
            <mxPoint x="286.22222222222223" y="457.145945945946" as="targetPoint" />
          </mxGeometry>
        </mxCell>
        <mxCell id="Iz0A_yomUNvifDAudpDW-36" value="Sort suffixes, which finds similar regions in fingerprint" style="text;html=1;strokeColor=none;fillColor=none;align=left;verticalAlign=middle;whiteSpace=wrap;rounded=0;fontSize=16;fontFamily=Computer Modern;" parent="Iz0A_yomUNvifDAudpDW-23" vertex="1">
          <mxGeometry x="339.78" y="354.29" width="191.56" height="45.71" as="geometry" />
        </mxCell>
        <mxCell id="Iz0A_yomUNvifDAudpDW-37" value="Find fingerprint indices which are clones" style="text;html=1;strokeColor=none;fillColor=none;align=left;verticalAlign=middle;whiteSpace=wrap;rounded=0;fontSize=16;fontFamily=Computer Modern;" parent="Iz0A_yomUNvifDAudpDW-23" vertex="1">
          <mxGeometry x="348.44444444444446" y="57.14324324324326" width="174.2222222222222" height="68.5718918918919" as="geometry" />
        </mxCell>
        <mxCell id="Iz0A_yomUNvifDAudpDW-38" value="Map fingerprint indices to source code locations" style="text;html=1;strokeColor=none;fillColor=none;align=left;verticalAlign=middle;whiteSpace=wrap;rounded=0;fontSize=16;fontFamily=Computer Modern;" parent="Iz0A_yomUNvifDAudpDW-23" vertex="1">
          <mxGeometry x="49.77777777777783" y="57.14324324324326" width="149.33333333333331" height="68.5718918918919" as="geometry" />
        </mxCell>
        <mxCell id="Iz0A_yomUNvifDAudpDW-39" value="Build clone objects to send to LSP module" style="text;html=1;strokeColor=none;fillColor=none;align=left;verticalAlign=middle;whiteSpace=wrap;rounded=0;fontSize=16;fontFamily=Computer Modern;" parent="Iz0A_yomUNvifDAudpDW-23" vertex="1">
          <mxGeometry x="49.77777777777783" y="342.85945945945946" width="149.33333333333331" height="68.5718918918919" as="geometry" />
        </mxCell>
        <mxCell id="Iz0A_yomUNvifDAudpDW-44" value="Clone indices" style="text;html=1;strokeColor=none;fillColor=none;align=center;verticalAlign=middle;whiteSpace=wrap;rounded=0;fontSize=16;fontFamily=Computer Modern;" parent="Iz0A_yomUNvifDAudpDW-23" vertex="1">
          <mxGeometry x="223.99999999999994" y="125.71513513513517" width="112.00000000000001" height="34.28594594594595" as="geometry" />
        </mxCell>
        <mxCell id="Iz0A_yomUNvifDAudpDW-45" value="Clone sources" style="text;html=1;strokeColor=none;fillColor=none;align=center;verticalAlign=middle;whiteSpace=wrap;rounded=0;fontSize=16;fontFamily=Computer Modern;" parent="Iz0A_yomUNvifDAudpDW-23" vertex="1">
          <mxGeometry x="-1.1368683772161603e-13" y="217.14432432432434" width="124.44444444444446" height="34.28594594594595" as="geometry" />
        </mxCell>
        <mxCell id="Iz0A_yomUNvifDAudpDW-25" value="" style="endArrow=classic;html=1;rounded=0;fontFamily=Computer Modern;fontSize=22;" parent="1" source="Iz0A_yomUNvifDAudpDW-1" target="Iz0A_yomUNvifDAudpDW-13" edge="1">
          <mxGeometry width="50" height="50" relative="1" as="geometry">
            <mxPoint y="240" as="sourcePoint" />
            <mxPoint x="50" y="190" as="targetPoint" />
          </mxGeometry>
        </mxCell>
        <mxCell id="Iz0A_yomUNvifDAudpDW-26" value="Document changes" style="text;html=1;strokeColor=none;fillColor=none;align=center;verticalAlign=middle;whiteSpace=wrap;rounded=0;fontSize=18;fontFamily=Computer Modern;" parent="1" vertex="1">
          <mxGeometry x="-10" y="330" width="150" height="30" as="geometry" />
        </mxCell>
        <mxCell id="Iz0A_yomUNvifDAudpDW-40" value="" style="endArrow=classic;html=1;rounded=0;fontFamily=Computer Modern;fontSize=14;" parent="1" source="Iz0A_yomUNvifDAudpDW-23" target="Iz0A_yomUNvifDAudpDW-1" edge="1">
          <mxGeometry width="50" height="50" relative="1" as="geometry">
            <mxPoint x="40" y="130" as="sourcePoint" />
            <mxPoint x="90" y="80" as="targetPoint" />
          </mxGeometry>
        </mxCell>
        <mxCell id="Iz0A_yomUNvifDAudpDW-41" value="Code clones" style="text;html=1;strokeColor=none;fillColor=none;align=center;verticalAlign=middle;whiteSpace=wrap;rounded=0;fontSize=18;fontFamily=Computer Modern;" parent="1" vertex="1">
          <mxGeometry x="-290" y="100" width="110" height="30" as="geometry" />
        </mxCell>
        <mxCell id="Iz0A_yomUNvifDAudpDW-42" value="" style="endArrow=classic;html=1;rounded=0;fontFamily=Computer Modern;fontSize=16;" parent="1" source="Iz0A_yomUNvifDAudpDW-13" target="Iz0A_yomUNvifDAudpDW-23" edge="1">
          <mxGeometry width="50" height="50" relative="1" as="geometry">
            <mxPoint y="70" as="sourcePoint" />
            <mxPoint x="50" y="20" as="targetPoint" />
          </mxGeometry>
        </mxCell>
        <mxCell id="Iz0A_yomUNvifDAudpDW-43" value="Fingerprint (Initial)&lt;br style=&quot;font-size: 18px;&quot;&gt;Edits (Dynamic)" style="text;html=1;strokeColor=none;fillColor=none;align=center;verticalAlign=middle;whiteSpace=wrap;rounded=0;fontSize=18;fontFamily=Computer Modern;" parent="1" vertex="1">
          <mxGeometry x="310" y="100" width="160" height="30" as="geometry" />
        </mxCell>
        <mxCell id="rPLDc0vXp0AHYgFYvSPC-1" value="" style="endArrow=classic;html=1;rounded=0;" edge="1" parent="1">
          <mxGeometry width="50" height="50" relative="1" as="geometry">
            <mxPoint x="-830" y="300" as="sourcePoint" />
            <mxPoint x="-630" y="300" as="targetPoint" />
          </mxGeometry>
        </mxCell>
        <mxCell id="rPLDc0vXp0AHYgFYvSPC-2" value="Client messages" style="text;html=1;strokeColor=none;fillColor=none;align=center;verticalAlign=middle;whiteSpace=wrap;rounded=0;fontFamily=Computer Modern;fontSize=19;" vertex="1" parent="1">
          <mxGeometry x="-800" y="270" width="140" height="30" as="geometry" />
        </mxCell>
        <mxCell id="rPLDc0vXp0AHYgFYvSPC-3" value="" style="endArrow=classic;html=1;rounded=0;" edge="1" parent="1" source="Iz0A_yomUNvifDAudpDW-1">
          <mxGeometry width="50" height="50" relative="1" as="geometry">
            <mxPoint x="-610" y="220" as="sourcePoint" />
            <mxPoint x="-830" y="360" as="targetPoint" />
          </mxGeometry>
        </mxCell>
        <mxCell id="rPLDc0vXp0AHYgFYvSPC-4" value="Code clones" style="text;html=1;strokeColor=none;fillColor=none;align=center;verticalAlign=middle;whiteSpace=wrap;rounded=0;fontFamily=Computer Modern;fontSize=19;" vertex="1" parent="1">
          <mxGeometry x="-800" y="360" width="140" height="30" as="geometry" />
        </mxCell>
      </root>
    </mxGraphModel>
  </diagram>
</mxfile>
